<svg width="193" height="39" viewBox="0 0 193 39" fill="none" xmlns="http://www.w3.org/2000/svg">
<path d="M0.34375 38.8438L20.75 0.15625L41.1562 38.8438H30.875L20.7188 18.9062L10.2812 38.8438H0.34375ZM75.5312 12.0312C75.5312 14.3854 74.9062 16.5104 73.6562 18.4062C74.8646 19.5104 75.8021 20.8125 76.4688 22.3125C77.1354 23.8125 77.4688 25.3958 77.4688 27.0625C77.4688 30.3125 76.3229 33.0938 74.0312 35.4062C71.7396 37.6979 68.9688 38.8438 65.7188 38.8438H43.9062V0.25H63.75C67.0208 0.25 69.8021 1.39583 72.0938 3.6875C74.3854 5.97917 75.5312 8.76042 75.5312 12.0312ZM69 27.0625C69 26.1667 68.6771 25.4062 68.0312 24.7812C67.4062 24.1354 66.6354 23.8125 65.7188 23.8125H52.4062V30.3438H65.7188C66.6146 30.3438 67.3854 30.0312 68.0312 29.4062C68.6771 28.7604 69 27.9792 69 27.0625ZM52.4062 15.3125H63.7812C64.6771 15.3125 65.4375 15 66.0625 14.375C66.7083 13.7292 67.0312 12.9479 67.0312 12.0312C67.0312 11.1146 66.7083 10.3438 66.0625 9.71875C65.4375 9.07292 64.6771 8.75 63.7812 8.75H52.4062V15.3125ZM89.9062 2.875C92.8646 1.14583 96.0938 0.28125 99.5938 0.28125C103.094 0.28125 106.323 1.14583 109.281 2.875C112.24 4.60417 114.583 6.94792 116.312 9.90625C118.042 12.8646 118.906 16.0938 118.906 19.5938C118.906 23.0938 118.042 26.3229 116.312 29.2812C114.583 32.2396 112.24 34.5833 109.281 36.3125C106.323 38.0417 103.094 38.9062 99.5938 38.9062C96.0938 38.9062 92.8646 38.0417 89.9062 36.3125C86.9479 34.5833 84.6042 32.2396 82.875 29.2812C81.1458 26.3229 80.2812 23.0938 80.2812 19.5938C80.2812 16.0938 81.1458 12.8646 82.875 9.90625C84.6042 6.94792 86.9479 4.60417 89.9062 2.875ZM107.25 27.25C109.375 25.125 110.438 22.5729 110.438 19.5938C110.438 16.6146 109.375 14.0625 107.25 11.9375C105.125 9.8125 102.573 8.75 99.5938 8.75C96.6146 8.75 94.0625 9.8125 91.9375 11.9375C89.8333 14.0625 88.7812 16.6146 88.7812 19.5938C88.7812 22.5729 89.8333 25.125 91.9375 27.25C94.0625 29.3542 96.6146 30.4062 99.5938 30.4062C102.573 30.4062 105.125 29.3542 107.25 27.25ZM144.719 23.0938V0.25H153.219V23.0938C153.219 25.9479 152.51 28.5833 151.094 31C149.698 33.4167 147.792 35.3333 145.375 36.75C142.958 38.1458 140.323 38.8438 137.469 38.8438C134.615 38.8438 131.979 38.1458 129.562 36.75C127.146 35.3333 125.229 33.4167 123.812 31C122.417 28.5833 121.719 25.9479 121.719 23.0938V0.25H130.219V23.0938C130.219 25.0938 130.927 26.8125 132.344 28.25C133.76 29.6667 135.469 30.375 137.469 30.375C139.469 30.375 141.177 29.6667 142.594 28.25C144.01 26.8125 144.719 25.0938 144.719 23.0938ZM156.031 8.75V0.28125H192.469V8.75H178.5V38.8438H170V8.75H156.031Z" fill="white"/>
</svg>
