<svg width="280" height="39" viewBox="0 0 280 39" fill="none" xmlns="http://www.w3.org/2000/svg">
<path d="M20.7812 0.25C24.0312 0.25 26.8021 1.39583 29.0938 3.6875C31.3854 5.97917 32.5312 8.76042 32.5312 12.0312C32.5312 15.2812 31.3854 18.0521 29.0938 20.3438C26.8021 22.6354 24.0312 23.7812 20.7812 23.7812H8.84375V38.8438H0.34375V0.25H20.7812ZM23.0938 14.3438C23.7396 13.6979 24.0625 12.9271 24.0625 12.0312C24.0625 11.1354 23.7396 10.3646 23.0938 9.71875C22.4479 9.07292 21.6771 8.75 20.7812 8.75H8.84375V15.3125H20.7812C21.6771 15.3125 22.4479 14.9896 23.0938 14.3438ZM25.7188 38.8438L46.125 0.15625L66.5312 38.8438H56.25L46.0938 18.9062L35.6562 38.8438H25.7188ZM101.469 12.0312C101.469 14.0104 101 15.875 100.062 17.625C99.1458 19.3542 97.8646 20.7604 96.2188 21.8438L102.406 38.8438H93.8125L88.3125 23.7812H77.7812V38.8438H69.2812V0.25H89.7188C92.9688 0.25 95.7396 1.39583 98.0312 3.6875C100.323 5.97917 101.469 8.76042 101.469 12.0312ZM92.0312 14.3438C92.6771 13.6979 93 12.9271 93 12.0312C93 11.1354 92.6771 10.3646 92.0312 9.71875C91.3854 9.07292 90.6146 8.75 89.7188 8.75H77.7812V15.3125H89.7188C90.6146 15.3125 91.3854 14.9896 92.0312 14.3438ZM105.219 8.75V0.28125H141.656V8.75H127.688V38.8438H119.188V8.75H105.219ZM167.469 19.5625V0.25H175.969V38.625L152.969 19.9062V38.8438H144.469V0.25L167.469 19.5625ZM178.719 38.8438V0.25L209.344 0.28125V8.75H187.219V15.3125H209.344V23.7812H187.219V30.375H209.344V38.8438H178.719ZM244.406 12.0312C244.406 14.0104 243.938 15.875 243 17.625C242.083 19.3542 240.802 20.7604 239.156 21.8438L245.344 38.8438H236.75L231.25 23.7812H220.719V38.8438H212.219V0.25H232.656C235.906 0.25 238.677 1.39583 240.969 3.6875C243.26 5.97917 244.406 8.76042 244.406 12.0312ZM234.969 14.3438C235.615 13.6979 235.938 12.9271 235.938 12.0312C235.938 11.1354 235.615 10.3646 234.969 9.71875C234.323 9.07292 233.552 8.75 232.656 8.75H220.719V15.3125H232.656C233.552 15.3125 234.323 14.9896 234.969 14.3438ZM268.094 15.3125C271.385 15.3125 274.188 16.4583 276.5 18.75C278.812 21.0417 279.969 23.8125 279.969 27.0625C279.969 30.3333 278.823 33.1146 276.531 35.4062C274.24 37.6979 271.469 38.8438 268.219 38.8438H268.188L249.812 38.8125V30.3438H268.219C269.115 30.3438 269.885 30.0312 270.531 29.4062C271.177 28.7604 271.5 27.9792 271.5 27.0625C271.5 26.1458 271.177 25.375 270.531 24.75C269.885 24.1042 269.115 23.7812 268.219 23.7812H259.938C256.688 23.7812 253.906 22.6354 251.594 20.3438C249.302 18.0521 248.156 15.2812 248.156 12.0312C248.156 8.76042 249.302 5.97917 251.594 3.6875C253.885 1.39583 256.667 0.25 259.938 0.25L278.312 0.28125V8.75H259.906C259.01 8.75 258.24 9.07292 257.594 9.71875C256.969 10.3438 256.656 11.1146 256.656 12.0312C256.656 12.9479 256.969 13.7292 257.594 14.375C258.24 15 259.01 15.3125 259.906 15.3125H268.094Z" fill="white"/>
</svg>
