<svg width="289" height="39" viewBox="0 0 289 39" fill="none" xmlns="http://www.w3.org/2000/svg">
<path d="M32.5312 12.0312C32.5312 14.0104 32.0625 15.875 31.125 17.625C30.2083 19.3542 28.9271 20.7604 27.2812 21.8438L33.4688 38.8438H24.875L19.375 23.7812H8.84375V38.8438H0.34375V0.25H20.7812C24.0312 0.25 26.8021 1.39583 29.0938 3.6875C31.3854 5.97917 32.5312 8.76042 32.5312 12.0312ZM23.0938 14.3438C23.7396 13.6979 24.0625 12.9271 24.0625 12.0312C24.0625 11.1354 23.7396 10.3646 23.0938 9.71875C22.4479 9.07292 21.6771 8.75 20.7812 8.75H8.84375V15.3125H20.7812C21.6771 15.3125 22.4479 14.9896 23.0938 14.3438ZM45.9062 2.875C48.8646 1.14583 52.0938 0.28125 55.5938 0.28125C59.0938 0.28125 62.3229 1.14583 65.2812 2.875C68.2396 4.60417 70.5833 6.94792 72.3125 9.90625C74.0417 12.8646 74.9062 16.0938 74.9062 19.5938C74.9062 23.0938 74.0417 26.3229 72.3125 29.2812C70.5833 32.2396 68.2396 34.5833 65.2812 36.3125C62.3229 38.0417 59.0938 38.9062 55.5938 38.9062C52.0938 38.9062 48.8646 38.0417 45.9062 36.3125C42.9479 34.5833 40.6042 32.2396 38.875 29.2812C37.1458 26.3229 36.2812 23.0938 36.2812 19.5938C36.2812 16.0938 37.1458 12.8646 38.875 9.90625C40.6042 6.94792 42.9479 4.60417 45.9062 2.875ZM63.25 27.25C65.375 25.125 66.4375 22.5729 66.4375 19.5938C66.4375 16.6146 65.375 14.0625 63.25 11.9375C61.125 9.8125 58.5729 8.75 55.5938 8.75C52.6146 8.75 50.0625 9.8125 47.9375 11.9375C45.8333 14.0625 44.7812 16.6146 44.7812 19.5938C44.7812 22.5729 45.8333 25.125 47.9375 27.25C50.0625 29.3542 52.6146 30.4062 55.5938 30.4062C58.5729 30.4062 61.125 29.3542 63.25 27.25ZM70.6562 38.8438L91.0625 0.15625L111.469 38.8438H101.188L91.0312 18.9062L80.5938 38.8438H70.6562ZM127.844 0.25C130.385 0.229167 132.833 0.708333 135.188 1.6875C137.562 2.66667 139.667 4.07292 141.5 5.90625C143.333 7.73958 144.729 9.83333 145.688 12.1875C146.667 14.5208 147.156 16.9792 147.156 19.5625C147.156 22.1667 146.646 24.6667 145.625 27.0625C144.604 29.4375 143.229 31.4896 141.5 33.2188C139.771 34.9271 137.708 36.2917 135.312 37.3125C132.938 38.3333 130.448 38.8438 127.844 38.8438H114.219V0.25H127.844ZM135.5 27.2188C137.604 25.0938 138.656 22.5417 138.656 19.5625C138.656 16.5833 137.604 14.0417 135.5 11.9375C133.396 9.8125 130.854 8.75 127.875 8.75H122.719V30.375H127.875C130.854 30.375 133.396 29.3229 135.5 27.2188ZM172.156 0.25L191.281 20.7188L210.375 0.25V38.8438H201.875V21.5312L191.25 33.5312L180.656 21.5312V38.8438H172.156V0.25ZM213.094 38.8438L233.5 0.15625L253.906 38.8438H243.625L233.469 18.9062L223.031 38.8438H213.094ZM277.094 0.25C280.344 0.25 283.115 1.39583 285.406 3.6875C287.698 5.97917 288.844 8.76042 288.844 12.0312C288.844 15.2812 287.698 18.0521 285.406 20.3438C283.115 22.6354 280.344 23.7812 277.094 23.7812H265.156V38.8438H256.656V0.25H277.094ZM279.406 14.3438C280.052 13.6979 280.375 12.9271 280.375 12.0312C280.375 11.1354 280.052 10.3646 279.406 9.71875C278.76 9.07292 277.99 8.75 277.094 8.75H265.156V15.3125H277.094C277.99 15.3125 278.76 14.9896 279.406 14.3438Z" fill="white"/>
</svg>
