<svg width="629" height="64" viewBox="0 0 629 64" fill="none" xmlns="http://www.w3.org/2000/svg">
<path d="M13.44 59.26V14.14H17.376V59.26H13.44ZM14.928 53.98C12.304 53.98 9.792 53.612 7.392 52.876C4.992 52.108 3.088 51.132 1.68 49.948L3.84 45.1C5.184 46.156 6.848 47.036 8.832 47.74C10.816 48.444 12.848 48.796 14.928 48.796C16.688 48.796 18.112 48.604 19.2 48.22C20.288 47.836 21.088 47.324 21.6 46.684C22.112 46.012 22.368 45.26 22.368 44.428C22.368 43.404 22 42.588 21.264 41.98C20.528 41.34 19.568 40.844 18.384 40.492C17.232 40.108 15.936 39.756 14.496 39.436C13.088 39.116 11.664 38.748 10.224 38.332C8.816 37.884 7.52 37.324 6.336 36.652C5.184 35.948 4.24 35.02 3.504 33.868C2.768 32.716 2.4 31.244 2.4 29.452C2.4 27.628 2.88 25.964 3.84 24.46C4.832 22.924 6.32 21.708 8.304 20.812C10.32 19.884 12.864 19.42 15.936 19.42C17.952 19.42 19.952 19.676 21.936 20.188C23.92 20.7 25.648 21.436 27.12 22.396L25.152 27.244C23.648 26.348 22.096 25.692 20.496 25.276C18.896 24.828 17.36 24.604 15.888 24.604C14.16 24.604 12.752 24.812 11.664 25.228C10.608 25.644 9.824 26.188 9.312 26.86C8.832 27.532 8.592 28.3 8.592 29.164C8.592 30.188 8.944 31.02 9.648 31.66C10.384 32.268 11.328 32.748 12.48 33.1C13.664 33.452 14.976 33.804 16.416 34.156C17.856 34.476 19.28 34.844 20.688 35.26C22.128 35.676 23.424 36.22 24.576 36.892C25.76 37.564 26.704 38.476 27.408 39.628C28.144 40.78 28.512 42.236 28.512 43.996C28.512 45.788 28.016 47.452 27.024 48.988C26.064 50.492 24.576 51.708 22.56 52.636C20.544 53.532 18 53.98 14.928 53.98ZM40.4115 35.356H57.1635V40.636H40.4115V35.356ZM40.9395 53.5H34.6995V19.9H59.2275V25.132H40.9395V53.5ZM64.686 53.5V27.868H70.686V53.5H64.686ZM67.71 23.644C66.59 23.644 65.662 23.292 64.926 22.588C64.222 21.884 63.87 21.036 63.87 20.044C63.87 19.02 64.222 18.172 64.926 17.5C65.662 16.796 66.59 16.444 67.71 16.444C68.83 16.444 69.742 16.78 70.446 17.452C71.182 18.092 71.55 18.908 71.55 19.9C71.55 20.956 71.198 21.852 70.494 22.588C69.79 23.292 68.862 23.644 67.71 23.644ZM90.177 63.148C87.809 63.148 85.489 62.828 83.217 62.188C80.977 61.58 79.137 60.684 77.697 59.5L80.385 54.988C81.505 55.916 82.913 56.652 84.609 57.196C86.337 57.772 88.081 58.06 89.841 58.06C92.657 58.06 94.721 57.404 96.033 56.092C97.345 54.812 98.001 52.876 98.001 50.284V45.724L98.481 39.916L98.289 34.108V27.868H104.001V49.612C104.001 54.252 102.817 57.66 100.449 59.836C98.081 62.044 94.657 63.148 90.177 63.148ZM89.409 52.348C86.977 52.348 84.769 51.836 82.785 50.812C80.833 49.756 79.281 48.3 78.129 46.444C77.009 44.588 76.449 42.412 76.449 39.916C76.449 37.452 77.009 35.292 78.129 33.436C79.281 31.58 80.833 30.14 82.785 29.116C84.769 28.092 86.977 27.58 89.409 27.58C91.585 27.58 93.537 28.012 95.265 28.876C96.993 29.74 98.369 31.084 99.393 32.908C100.449 34.732 100.977 37.068 100.977 39.916C100.977 42.764 100.449 45.116 99.393 46.972C98.369 48.796 96.993 50.156 95.265 51.052C93.537 51.916 91.585 52.348 89.409 52.348ZM90.321 47.26C91.825 47.26 93.169 46.956 94.353 46.348C95.537 45.708 96.449 44.844 97.089 43.756C97.761 42.636 98.097 41.356 98.097 39.916C98.097 38.476 97.761 37.212 97.089 36.124C96.449 35.004 95.537 34.156 94.353 33.58C93.169 32.972 91.825 32.668 90.321 32.668C88.817 32.668 87.457 32.972 86.241 33.58C85.057 34.156 84.129 35.004 83.457 36.124C82.817 37.212 82.497 38.476 82.497 39.916C82.497 41.356 82.817 42.636 83.457 43.756C84.129 44.844 85.057 45.708 86.241 46.348C87.457 46.956 88.817 47.26 90.321 47.26ZM126.433 27.58C128.481 27.58 130.305 27.98 131.905 28.78C133.537 29.58 134.817 30.812 135.745 32.476C136.673 34.108 137.137 36.22 137.137 38.812V53.5H131.137V39.58C131.137 37.308 130.593 35.612 129.505 34.492C128.449 33.372 126.961 32.812 125.041 32.812C123.633 32.812 122.385 33.1 121.297 33.676C120.209 34.252 119.361 35.116 118.753 36.268C118.177 37.388 117.889 38.812 117.889 40.54V53.5H111.889V17.884H117.889V34.78L116.593 32.668C117.489 31.036 118.785 29.788 120.481 28.924C122.209 28.028 124.193 27.58 126.433 27.58ZM154.397 53.836C151.581 53.836 149.405 53.116 147.868 51.676C146.333 50.204 145.565 48.044 145.565 45.196V22.204H151.565V45.052C151.565 46.268 151.869 47.212 152.477 47.884C153.117 48.556 153.997 48.892 155.117 48.892C156.461 48.892 157.581 48.54 158.477 47.836L160.157 52.108C159.453 52.684 158.589 53.116 157.565 53.404C156.541 53.692 155.485 53.836 154.397 53.836ZM141.341 32.86V28.06H158.429V32.86H141.341ZM171.38 35.356H188.132V40.636H171.38V35.356ZM171.908 53.5H165.668V19.9H190.196V25.132H171.908V53.5ZM205.8 53.836C203.624 53.836 201.704 53.436 200.04 52.636C198.376 51.804 197.08 50.556 196.152 48.892C195.224 47.196 194.76 45.068 194.76 42.508V27.868H200.76V41.692C200.76 43.996 201.272 45.724 202.296 46.876C203.352 47.996 204.84 48.556 206.76 48.556C208.168 48.556 209.384 48.268 210.408 47.692C211.464 47.116 212.28 46.252 212.856 45.1C213.464 43.948 213.768 42.524 213.768 40.828V27.868H219.768V53.5H214.056V46.588L215.064 48.7C214.2 50.364 212.936 51.644 211.272 52.54C209.608 53.404 207.784 53.836 205.8 53.836ZM227.624 53.5V27.868H233.336V34.924L232.664 32.86C233.432 31.132 234.632 29.82 236.264 28.924C237.928 28.028 239.992 27.58 242.456 27.58V33.292C242.2 33.228 241.96 33.196 241.736 33.196C241.512 33.164 241.288 33.148 241.064 33.148C238.792 33.148 236.984 33.82 235.64 35.164C234.296 36.476 233.624 38.444 233.624 41.068V53.5H227.624ZM247.545 53.5V27.868H253.545V53.5H247.545ZM250.569 23.644C249.449 23.644 248.521 23.292 247.785 22.588C247.081 21.884 246.729 21.036 246.729 20.044C246.729 19.02 247.081 18.172 247.785 17.5C248.521 16.796 249.449 16.444 250.569 16.444C251.689 16.444 252.601 16.78 253.305 17.452C254.041 18.092 254.409 18.908 254.409 19.9C254.409 20.956 254.057 21.852 253.353 22.588C252.649 23.292 251.721 23.644 250.569 23.644ZM273.468 53.836C270.62 53.836 268.124 53.276 265.98 52.156C263.868 51.004 262.22 49.436 261.036 47.452C259.884 45.468 259.308 43.212 259.308 40.684C259.308 38.124 259.868 35.868 260.988 33.916C262.14 31.932 263.708 30.38 265.692 29.26C267.708 28.14 269.996 27.58 272.556 27.58C275.052 27.58 277.276 28.124 279.228 29.212C281.18 30.3 282.716 31.836 283.836 33.82C284.956 35.804 285.516 38.14 285.516 40.828C285.516 41.084 285.5 41.372 285.468 41.692C285.468 42.012 285.452 42.316 285.42 42.604H264.06V38.62H282.252L279.9 39.868C279.932 38.396 279.628 37.1 278.988 35.98C278.348 34.86 277.468 33.98 276.348 33.34C275.26 32.7 273.996 32.38 272.556 32.38C271.084 32.38 269.788 32.7 268.668 33.34C267.58 33.98 266.716 34.876 266.076 36.028C265.468 37.148 265.164 38.476 265.164 40.012V40.972C265.164 42.508 265.516 43.868 266.22 45.052C266.924 46.236 267.916 47.148 269.196 47.788C270.476 48.428 271.948 48.748 273.612 48.748C275.052 48.748 276.348 48.524 277.5 48.076C278.652 47.628 279.676 46.924 280.572 45.964L283.788 49.66C282.636 51.004 281.18 52.044 279.42 52.78C277.692 53.484 275.708 53.836 273.468 53.836ZM309.969 17.884L307.185 28.54L306.417 24.94C307.537 24.94 308.465 25.292 309.201 25.996C309.937 26.7 310.305 27.644 310.305 28.828C310.305 30.012 309.937 30.972 309.201 31.708C308.465 32.412 307.553 32.764 306.465 32.764C305.313 32.764 304.369 32.396 303.633 31.66C302.897 30.924 302.529 29.98 302.529 28.828C302.529 28.444 302.545 28.092 302.577 27.772C302.641 27.42 302.753 27.004 302.913 26.524C303.073 26.044 303.297 25.436 303.585 24.7L306.129 17.884H309.969ZM324.184 53.836C322.04 53.836 319.976 53.564 317.992 53.02C316.04 52.444 314.488 51.756 313.336 50.956L315.64 46.396C316.792 47.132 318.168 47.74 319.768 48.22C321.368 48.7 322.968 48.94 324.568 48.94C326.456 48.94 327.816 48.684 328.648 48.172C329.512 47.66 329.944 46.972 329.944 46.108C329.944 45.404 329.656 44.876 329.08 44.524C328.504 44.14 327.752 43.852 326.824 43.66C325.896 43.468 324.856 43.292 323.704 43.132C322.584 42.972 321.448 42.764 320.296 42.508C319.176 42.22 318.152 41.82 317.224 41.308C316.296 40.764 315.544 40.044 314.968 39.148C314.392 38.252 314.104 37.068 314.104 35.596C314.104 33.964 314.568 32.556 315.496 31.372C316.424 30.156 317.72 29.228 319.384 28.588C321.08 27.916 323.08 27.58 325.384 27.58C327.112 27.58 328.856 27.772 330.616 28.156C332.376 28.54 333.832 29.084 334.984 29.788L332.68 34.348C331.464 33.612 330.232 33.116 328.984 32.86C327.768 32.572 326.552 32.428 325.336 32.428C323.512 32.428 322.152 32.7 321.256 33.244C320.392 33.788 319.96 34.476 319.96 35.308C319.96 36.076 320.248 36.652 320.824 37.036C321.4 37.42 322.152 37.724 323.08 37.948C324.008 38.172 325.032 38.364 326.152 38.524C327.304 38.652 328.44 38.86 329.56 39.148C330.68 39.436 331.704 39.836 332.632 40.348C333.592 40.828 334.36 41.516 334.936 42.412C335.512 43.308 335.8 44.476 335.8 45.916C335.8 47.516 335.32 48.908 334.36 50.092C333.432 51.276 332.104 52.204 330.376 52.876C328.648 53.516 326.584 53.836 324.184 53.836Z" fill="white"/>
<path d="M368.008 26.5625V20.2109H395.336V26.5625H384.859V49.1328H378.484V26.5625H368.008ZM404.664 22.1562C406.883 20.8594 409.305 20.2109 411.93 20.2109C414.555 20.2109 416.977 20.8594 419.195 22.1562C421.414 23.4531 423.172 25.2109 424.469 27.4297C425.766 29.6484 426.414 32.0703 426.414 34.6953C426.414 37.3203 425.766 39.7422 424.469 41.9609C423.172 44.1797 421.414 45.9375 419.195 47.2344C416.977 48.5312 414.555 49.1797 411.93 49.1797C409.305 49.1797 406.883 48.5312 404.664 47.2344C402.445 45.9375 400.688 44.1797 399.391 41.9609C398.094 39.7422 397.445 37.3203 397.445 34.6953C397.445 32.0703 398.094 29.6484 399.391 27.4297C400.688 25.2109 402.445 23.4531 404.664 22.1562ZM417.672 40.4375C419.266 38.8438 420.062 36.9297 420.062 34.6953C420.062 32.4609 419.266 30.5469 417.672 28.9531C416.078 27.3594 414.164 26.5625 411.93 26.5625C409.695 26.5625 407.781 27.3594 406.188 28.9531C404.609 30.5469 403.82 32.4609 403.82 34.6953C403.82 36.9297 404.609 38.8438 406.188 40.4375C407.781 42.0156 409.695 42.8047 411.93 42.8047C414.164 42.8047 416.078 42.0156 417.672 40.4375ZM444.953 20.1875H453.25L444.344 31.0156L452.477 49.1328L445.117 49.1562L439.539 36.8047L428.523 49.25V20.1875H434.898V32.1406L444.953 20.1875ZM455.336 49.1328V20.1875L478.305 20.2109V26.5625H461.711V31.4844H478.305V37.8359H461.711V42.7812H478.305V49.1328H455.336ZM497.711 34.6719V20.1875H504.086V48.9688L486.836 34.9297V49.1328H480.461V20.1875L497.711 34.6719ZM513.367 22.1562C515.586 20.8594 518.008 20.2109 520.633 20.2109C523.258 20.2109 525.68 20.8594 527.898 22.1562C530.117 23.4531 531.875 25.2109 533.172 27.4297C534.469 29.6484 535.117 32.0703 535.117 34.6953C535.117 37.3203 534.469 39.7422 533.172 41.9609C531.875 44.1797 530.117 45.9375 527.898 47.2344C525.68 48.5312 523.258 49.1797 520.633 49.1797C518.008 49.1797 515.586 48.5312 513.367 47.2344C511.148 45.9375 509.391 44.1797 508.094 41.9609C506.797 39.7422 506.148 37.3203 506.148 34.6953C506.148 32.0703 506.797 29.6484 508.094 27.4297C509.391 25.2109 511.148 23.4531 513.367 22.1562ZM526.375 40.4375C527.969 38.8438 528.766 36.9297 528.766 34.6953C528.766 32.4609 527.969 30.5469 526.375 28.9531C524.781 27.3594 522.867 26.5625 520.633 26.5625C518.398 26.5625 516.484 27.3594 514.891 28.9531C513.312 30.5469 512.523 32.4609 512.523 34.6953C512.523 36.9297 513.312 38.8438 514.891 40.4375C516.484 42.0156 518.398 42.8047 520.633 42.8047C522.867 42.8047 524.781 42.0156 526.375 40.4375ZM537.227 20.1875L551.57 35.5391L565.891 20.1875V49.1328H559.516V36.1484L551.547 45.1484L543.602 36.1484V49.1328H537.227V20.1875ZM574.305 49.1328H567.93V20.1875H574.305V49.1328ZM591.18 26.5625C588.898 26.5625 586.945 27.3672 585.32 28.9766C583.695 30.5703 582.875 32.5 582.859 34.7656C582.859 36.9688 583.672 38.8594 585.297 40.4375C586.922 42 588.883 42.7812 591.18 42.7812C593.008 42.7812 594.656 42.25 596.125 41.1875L596.57 40.8594L601.117 45.4297L600.555 45.875C597.852 48.0469 594.727 49.1328 591.18 49.1328C589.18 49.1328 587.266 48.7578 585.438 48.0078C583.625 47.2422 582.055 46.2188 580.727 44.9375C579.414 43.6406 578.359 42.1094 577.562 40.3438C576.781 38.5781 576.383 36.7188 576.367 34.7656V34.6719L576.508 34.6484H576.391H576.367C576.367 32.0391 577.031 29.625 578.359 27.4062C579.688 25.1875 581.484 23.4375 583.75 22.1562C586.031 20.8594 588.508 20.2109 591.18 20.2109C594.727 20.2109 597.852 21.2969 600.555 23.4688L601.117 23.9141L596.57 28.4844L596.125 28.1562C594.656 27.0938 593.008 26.5625 591.18 26.5625ZM618.18 31.4844C620.648 31.4844 622.75 32.3438 624.484 34.0625C626.219 35.7812 627.086 37.8594 627.086 40.2969C627.086 42.75 626.227 44.8359 624.508 46.5547C622.789 48.2734 620.711 49.1328 618.273 49.1328H618.25L604.469 49.1094V42.7578H618.273C618.945 42.7578 619.523 42.5234 620.008 42.0547C620.492 41.5703 620.734 40.9844 620.734 40.2969C620.734 39.6094 620.492 39.0312 620.008 38.5625C619.523 38.0781 618.945 37.8359 618.273 37.8359H612.062C609.625 37.8359 607.539 36.9766 605.805 35.2578C604.086 33.5391 603.227 31.4609 603.227 29.0234C603.227 26.5703 604.086 24.4844 605.805 22.7656C607.523 21.0469 609.609 20.1875 612.062 20.1875L625.844 20.2109V26.5625H612.039C611.367 26.5625 610.789 26.8047 610.305 27.2891C609.836 27.7578 609.602 28.3359 609.602 29.0234C609.602 29.7109 609.836 30.2969 610.305 30.7812C610.789 31.25 611.367 31.4844 612.039 31.4844H618.18Z" fill="white"/>
</svg>
